<svg xmlns="http://www.w3.org/2000/svg" viewBox="0 0 224.28 85.02"><defs><style>.cls-1{fill:#231f20;}.cls-2{fill:none;stroke:#231f20;stroke-miterlimit:10;stroke-width:0.51px;}.cls-3{fill:#0075c9;}.cls-3,.cls-4{fill-rule:evenodd;}.cls-4{fill:#e1251b;}</style></defs><title>Asset 1</title><g id="Layer_2" data-name="Layer 2"><g id="Layer_1-2" data-name="Layer 1"><path class="cls-1" d="M40.88,81.2H34.47l-1.28,3.61H32l4.8-13.76h1.79l4.8,13.76h-1.2Zm-6-1.06h5.67l-2.84-8.39Z"/><path class="cls-1" d="M54.7,85a11.59,11.59,0,0,1-3.88-.66l.22-1a12.69,12.69,0,0,0,3.7.56c2.36,0,3-.7,3-2.46,0-2.13,0-2.35-3.08-3C51.33,77.64,51,77,51,74.27c0-2.25.83-3.43,4.28-3.43a14.11,14.11,0,0,1,3.55.48l-.14,1a16.35,16.35,0,0,0-3.37-.41c-2.73,0-3.1.66-3.1,2.37,0,2.24.06,2.34,3,3.06,3.61.91,3.82,1.43,3.82,4C59,83.65,58.19,85,54.7,85Z"/><path class="cls-1" d="M64,84.81H62.78V71.05H64Z"/><path class="cls-1" d="M69.35,84.81H68.13V71.05h1.22Zm1.94-7,5.91,7H75.67l-5.84-7,5.47-6.76h1.51Z"/><path class="cls-1" d="M88,81.2H81.54l-1.28,3.61h-1.2l4.8-13.76h1.8l4.79,13.76h-1.2Zm-6-1.06h5.66l-2.83-8.39Z"/><path class="cls-1" d="M99.11,81c0,2.15,1,2.91,3.45,2.91a19,19,0,0,0,3.06-.27l.14,1.06a18.78,18.78,0,0,1-3.3.31c-3.33,0-4.57-1.43-4.57-4v-6.2c0-2.56,1.24-4,4.57-4a18.78,18.78,0,0,1,3.3.31l-.14,1.06a19,19,0,0,0-3.06-.27c-2.5,0-3.45.76-3.45,2.91Z"/><path class="cls-1" d="M113.2,85c-3.53,0-4.81-1.74-4.81-4.09v-6c0-2.35,1.28-4.09,4.81-4.09S118,72.58,118,74.93v6C118,83.28,116.73,85,113.2,85Zm3.6-4.14V75c0-2-1-3-3.6-3s-3.59,1.07-3.59,3v5.9c0,2,1,3,3.59,3S116.8,82.85,116.8,80.88Z"/><path class="cls-1" d="M133,72.27,129,83h-1.88l-4-10.76-.29,12.54h-1.22l.42-13.76h1.77l4.28,11.24,4.26-11.24h1.77l.42,13.76h-1.22Z"/><path class="cls-1" d="M138.47,71.05h4.67c2.77,0,3.78,1.26,3.78,3.18v2.15c0,1.92-1,3.18-3.78,3.18h-3.45v5.25h-1.22Zm4.69,1.09h-3.47v6.33h3.47c1.74,0,2.55-.58,2.55-2.09V74.23C145.71,72.72,144.9,72.14,143.16,72.14Z"/><path class="cls-1" d="M156.59,81.2h-6.4l-1.28,3.61h-1.2l4.8-13.76h1.79l4.8,13.76h-1.2Zm-6-1.06h5.66l-2.83-8.39Z"/><path class="cls-1" d="M163.15,72.25V84.81H162V71.05h1.78l6.53,12.58V71.05h1.15V84.81h-1.77Z"/><path class="cls-1" d="M179.22,79.36l4.05-8.31h1.26l-4.69,9.52v4.24h-1.22V80.57l-4.69-9.52h1.27Z"/><line class="cls-2" y1="56.69" x2="216.52" y2="56.69"/><path class="cls-3" d="M12.71,32.26h4l-.81-3c-.4-1.5-.68-2.67-.82-3.48a16.45,16.45,0,0,1-.27-2.3h-.17a18.1,18.1,0,0,1-.27,2.3c-.15.81-.42,2-.82,3.48l-.82,3ZM0,41.82,9.5,15.53H20.17L29.5,41.82H19.19l-.86-3.31H11.11l-.82,3.31Zm41.54-8a7.5,7.5,0,0,0,4.75-1.25,4.71,4.71,0,0,0,1.49-3.85,4.86,4.86,0,0,0-1.43-3.83A6.52,6.52,0,0,0,42,23.61h-.42V33.79Zm-9.5,8V15.53H39.8a43.44,43.44,0,0,1,6.31.4,13.84,13.84,0,0,1,4.25,1.26,13.23,13.23,0,0,1,5.31,4.75,12.48,12.48,0,0,1,1.85,6.75,12.48,12.48,0,0,1-1.84,6.72,13.34,13.34,0,0,1-5.32,4.75,13.89,13.89,0,0,1-4.3,1.26,47.5,47.5,0,0,1-7,.4Zm28.43,0V15.53H78.29v7.13H69.86v2.53h7.65v6.73H69.86v2.77h8.65v7.13Zm60.27,0V15.53h9.59V33.29h9.32v8.53ZM155,32.26h4l-.81-3c-.42-1.5-.68-2.67-.83-3.48a20.12,20.12,0,0,1-.27-2.3h-.16a20.12,20.12,0,0,1-.27,2.3c-.15.81-.41,2-.82,3.48l-.82,3Zm-12.71,9.56,9.5-26.29h10.67l9.32,26.29h-10.3l-.86-3.31h-7.23l-.82,3.31ZM173,39.57,176,32.21a19,19,0,0,0,3.67,2.07,8,8,0,0,0,3,.66,2.76,2.76,0,0,0,1.55-.37,1.11,1.11,0,0,0,.56-1c0-.73-.94-1.28-2.82-1.66l-1.42-.31A8.41,8.41,0,0,1,176,29.05a6.75,6.75,0,0,1-1.58-4.56,8.66,8.66,0,0,1,3.07-6.89,11.88,11.88,0,0,1,8.07-2.66,17.63,17.63,0,0,1,4.52.59,20.38,20.38,0,0,1,4.48,1.8l-2.92,6.87a12,12,0,0,0-2.77-1.54,7.65,7.65,0,0,0-2.71-.52,3,3,0,0,0-1.54.33,1,1,0,0,0-.55.92c0,.75,1.33,1.39,4,2l1,.22a7.59,7.59,0,0,1,4.33,2.49A6.85,6.85,0,0,1,195,32.62a9,9,0,0,1-3.2,7.13,12.26,12.26,0,0,1-8.31,2.77,19.27,19.27,0,0,1-5.24-.74A24,24,0,0,1,173,39.57Zm28.64,2.25V24.13h-5.33v-8.6h20.24v8.6h-5.33V41.82Z"/><path class="cls-4" d="M221,17.35a2.8,2.8,0,0,0-1.33.34,2.53,2.53,0,0,0-1,1,2.66,2.66,0,0,0-.36,1.33,2.62,2.62,0,0,0,.36,1.32,2.57,2.57,0,0,0,1,1,2.76,2.76,0,0,0,2.69,0,2.55,2.55,0,0,0,1-1,2.62,2.62,0,0,0,.36-1.32,2.66,2.66,0,0,0-.36-1.33,2.47,2.47,0,0,0-1-1,2.8,2.8,0,0,0-1.33-.34Zm0-.53a3.25,3.25,0,0,1,1.59.41,2.87,2.87,0,0,1,1.21,1.18,3.22,3.22,0,0,1,.44,1.6,3.27,3.27,0,0,1-.43,1.59,3,3,0,0,1-1.2,1.18,3.3,3.3,0,0,1-3.22,0,3.09,3.09,0,0,1-1.2-1.18A3.27,3.27,0,0,1,217.8,20a3.22,3.22,0,0,1,.44-1.6,2.93,2.93,0,0,1,1.21-1.18,3.3,3.3,0,0,1,1.59-.41Zm-1.42,4.95V18.34h1.2a3.17,3.17,0,0,1,.89.09,1,1,0,0,1,.6.84.93.93,0,0,1-.27.66,1.14,1.14,0,0,1-.73.31,1.09,1.09,0,0,1,.3.18,3.92,3.92,0,0,1,.51.68l.43.67h-.69l-.31-.54a2.82,2.82,0,0,0-.59-.8.71.71,0,0,0-.45-.11h-.33v1.45Zm.56-1.93v-1h.64a1.87,1.87,0,0,1,.57.05.55.55,0,0,1,.24.18.54.54,0,0,1,.08.28.46.46,0,0,1-.18.38,1.15,1.15,0,0,1-.66.14Z"/><path class="cls-4" d="M96.59,11.62v7H99a5.41,5.41,0,0,0,3.33-.89,3.09,3.09,0,0,0,1.16-2.57,3.1,3.1,0,0,0-1.19-2.58,5.22,5.22,0,0,0-3.3-.93ZM81.27,41.82V0H99.49q9.62,0,14.06,3.66T118,15.25q0,7.4-4,10.81c-2.66,2.27-6.9,3.41-12.69,3.41H96.53V41.82Z"/></g></g></svg>